<?xml version="1.0" encoding="UTF-8" standalone="no"?>
<!-- Created with Inkscape (http://www.inkscape.org/) -->

<svg
   version="1.1"
   id="svg1"
   width="528.41022"
   height="221.60062"
   viewBox="0 0 528.41022 221.60062"
   sodipodi:docname="sov1b.svg"
   inkscape:version="1.3.2 (091e20ef0f, 2023-11-25)"
   xmlns:inkscape="http://www.inkscape.org/namespaces/inkscape"
   xmlns:sodipodi="http://sodipodi.sourceforge.net/DTD/sodipodi-0.dtd"
   xmlns="http://www.w3.org/2000/svg"
   xmlns:svg="http://www.w3.org/2000/svg">
  <defs
     id="defs1" />
  <sodipodi:namedview
     id="namedview1"
     pagecolor="#ffffff"
     bordercolor="#000000"
     borderopacity="0.25"
     inkscape:showpageshadow="2"
     inkscape:pageopacity="0.0"
     inkscape:pagecheckerboard="0"
     inkscape:deskcolor="#d1d1d1"
     showgrid="false"
     inkscape:zoom="1.9098029"
     inkscape:cx="267.04326"
     inkscape:cy="47.387089"
     inkscape:window-width="1920"
     inkscape:window-height="1011"
     inkscape:window-x="0"
     inkscape:window-y="0"
     inkscape:window-maximized="1"
     inkscape:current-layer="layer1" />
  <g
     inkscape:groupmode="layer"
     id="layer1"
     inkscape:label="Layer 1"
     transform="translate(-16.831469,-20.229772)">
    <path
       style="fill:#000000"
       d="m 266.62045,240.22024 c -2.82144,-1.74902 -4.52595,-6.10344 -4.5351,-11.58558 l -0.005,-3.20534 -2.92365,2.46009 c -1.608,1.35305 -4.70469,2.93967 -6.88152,3.52583 -7.02838,1.89255 -9.85202,-0.88402 -11.0393,-10.85524 -0.4708,-3.95396 -0.83505,-4.56 -2.74067,-4.56 -7.60207,0 -6.44535,-12.38605 2.3776,-25.45919 2.65429,-3.93291 2.96938,-4.97317 2.09059,-6.90192 -1.62582,-3.56829 -2.35544,-12.22666 -1.21058,-14.36586 0.83915,-1.56796 0.43136,-2.73836 -2.28554,-6.55973 -1.81881,-2.5582 -3.31439,-5.54722 -3.32351,-6.64228 -0.009,-1.09506 -1.05823,-2.97863 -2.33134,-4.1857 -1.27312,-1.20707 -2.59068,-3.45096 -2.92792,-4.98642 -0.33725,-1.53546 -2.08538,-4.65185 -3.88474,-6.92532 -1.79937,-2.27347 -3.54204,-5.36428 -3.87261,-6.86847 -0.43673,-1.98725 -0.88941,-2.44651 -1.65592,-1.68 -0.58019,0.58019 -2.19149,1.05489 -3.58067,1.05489 -1.72603,0 -2.94135,0.7765 -3.83826,2.45239 -0.95523,1.78486 -1.97929,2.38799 -3.76222,2.21577 -1.74022,-0.16809 -3.466,0.79129 -5.95858,3.31246 -3.71766,3.76027 -6.01728,3.91683 -7.10687,0.48382 -0.55876,-1.76049 -0.86838,-1.63481 -3.76602,1.52869 -2.32884,2.54249 -3.94186,3.44687 -6.14774,3.44687 -2.37108,0 -2.99052,-0.40608 -2.99052,-1.96043 0,-1.64101 -0.60144,-1.32818 -3.69136,1.92 -4.41847,4.64478 -8.39617,5.29844 -9.34073,1.53499 -0.32377,-1.28999 -0.3065,-2.80199 0.0384,-3.36 0.34487,-0.55801 0.35336,-1.45738 0.0189,-1.99859 -0.3589,-0.58073 -2.18157,0.30456 -4.44709,2.16 -8.8628,7.25851 -11.37805,7.70416 -11.37805,2.01595 v -3.32266 l -2.64,1.85942 c -1.452,1.02268 -3.72,2.17835 -5.04,2.56815 -1.32,0.3898 -4.344,1.91953 -6.72,3.39941 -5.56092,3.46358 -11.20158,5.02172 -13.57702,3.75043 -2.33138,-1.24772 -2.2697,-4.23996 0.13702,-6.64667 2.81634,-2.81635 1.02999,-2.34628 -1.95633,0.5148 -3.61602,3.46436 -10.92489,5.90433 -18.37581,6.13451 -5.69686,0.17599 -6.53596,-0.0333 -7.522245,-1.87619 -0.933472,-1.7442 -0.762133,-2.44469 1.076755,-4.4021 1.20278,-1.2803 4.2638,-3.66057 6.80225,-5.2895 2.53846,-1.62892 4.61538,-3.1106 4.61538,-3.29261 0,-0.18202 -1.62,0.34744 -3.6,1.17658 -3.94424,1.65168 -7.63042,2.13636 -21.360002,2.80855 -8.02272,0.39279 -9.50568,0.2073 -12.325562,-1.54169 -3.085609,-1.9138 -3.149385,-2.07393 -1.704344,-4.27935 1.445105,-2.2055 1.40345,-2.30997 -1.114438,-2.79474 -1.438611,-0.27698 -5.114837,-0.99067 -8.169391,-1.58599 -6.798497,-1.325 -11.29513,-4.72011 -9.740113,-7.3541 1.498226,-2.5378 7.185472,-5.08105 12.86707,-5.75395 5.572527,-0.65998 4.772673,-2.1852 -1.158716,-2.20952 -3.734121,-0.0153 -18.370592,-3.91944 -22.105326,-5.89637 -8.343007,-4.41626 -10.905935,-9.52898 -5.757883,-11.48627 1.447213,-0.55023 7.171213,-0.90474 12.72,-0.7878 10.313029,0.21735 18.881392,-0.39695 19.912002,-1.42756 0.317185,-0.317186 -0.519021,-0.576702 -1.858238,-0.576702 -3.020013,0 -12.371178,-2.946411 -19.168059,-6.039566 -2.814351,-1.280767 -7.251239,-3.104952 -9.859753,-4.053744 -7.06729,-2.570578 -17.817248,-12.365561 -17.817248,-16.23445 0,-3.978246 3.811862,-4.997387 11.427693,-3.055315 6.639326,1.693058 8.745168,1.408293 4.296364,-0.580981 C 36.283825,67.276173 31.495224,63.263999 27.16272,59.039999 18.682232,50.771897 15.560781,45.452388 17.291733,42.218076 c 1.309805,-2.447394 3.488951,-2.396045 7.668266,0.180694 1.848,1.139376 5.014666,2.382094 7.037036,2.761595 l 3.677036,0.690002 -2.87753,-3.005184 C 31.2139,41.192332 29.343234,38.4767 28.639505,36.810445 c -0.703728,-1.666254 -3.223506,-4.493543 -5.599506,-6.282864 -4.546483,-3.42387 -5.813334,-6.549859 -3.690857,-9.107287 1.029157,-1.240058 2.64935,-1.414699 8.953693,-0.965122 4.23344,0.301897 9.303289,1.222986 11.26633,2.046866 C 41.532206,23.325917 44.100986,24 45.277564,24 c 1.176579,0 3.674454,1.002823 5.550834,2.228496 15.932536,10.407317 20.097711,12.903392 22.553663,13.515787 1.552135,0.387027 5.656135,2.348636 9.12,4.35913 11.17565,6.486562 14.66386,7.927921 22.551679,9.318551 12.88529,2.271691 24.71895,2.425494 30.61234,0.397871 2.79439,-0.96141 6.89041,-2.053767 9.10228,-2.427459 2.21187,-0.373693 4.26533,-1.073852 4.56326,-1.555909 0.29793,-0.482057 1.50979,-0.876468 2.69303,-0.876468 1.18324,0 2.56175,-0.39516 3.06335,-0.878133 0.5016,-0.482974 3.288,-1.165656 6.192,-1.517072 4.67975,-0.566302 5.6941,-0.357338 8.92263,1.838133 2.00345,1.36239 3.86827,2.477072 4.14405,2.477072 0.27578,0 2.04688,1.188 3.93578,2.64 3.85056,2.959938 13.66081,8.609733 20.92695,12.051985 3.61808,1.714027 7.15551,2.418377 14.28066,2.843469 l 9.47125,0.565063 2.51934,-2.997064 c 1.38563,-1.648385 2.37274,-3.646579 2.19358,-4.440432 -0.17917,-0.793853 0.2977,-1.899252 1.05971,-2.456443 0.762,-0.557191 2.29449,-2.739613 3.40554,-4.849827 3.75672,-7.135175 19.8432,-20.494054 22.0369,-18.300354 0.30269,0.302686 1.66482,-0.195463 3.02697,-1.106997 3.59126,-2.403233 24.64624,-4.960523 27.53434,-3.34426 0.99715,0.558032 2.81517,0.598417 4.54936,0.101059 3.21305,-0.921491 10.33071,1.014441 12.7969,3.480627 0.78695,0.786952 1.77335,1.219131 2.19198,0.960397 0.95503,-0.590239 21.34872,12.541428 22.40313,14.425566 0.42699,0.762989 1.96213,2.000441 3.41141,2.749893 2.3724,1.226816 7.563,9.834822 9.22534,15.299144 0.43432,1.427678 1.065,1.636963 3.17312,1.052977 1.44708,-0.400867 5.65505,-0.783357 9.35105,-0.849976 5.84095,-0.105281 7.75256,-0.64214 14.61352,-4.104083 4.34144,-2.190627 10.31685,-5.63396 13.2787,-7.651851 2.96185,-2.017891 6.10577,-4.092355 6.98648,-4.60992 0.88072,-0.517564 3.6998,-2.212439 6.26464,-3.766388 3.89183,-2.357928 4.96581,-2.636466 6.4916,-1.683595 1.00554,0.627972 2.82709,0.891076 4.04789,0.584675 1.40386,-0.352347 2.67769,-0.0052 3.46595,0.944621 0.68547,0.825943 2.46392,1.501714 3.95211,1.501714 1.48819,0 2.97279,0.432 3.29911,0.96 0.32632,0.528 1.53982,0.965515 2.69666,0.972255 1.15683,0.0067 5.34334,1.007341 9.30334,2.223557 6.25754,1.921848 8.33095,2.123102 15.84,1.537497 19.38858,-1.512051 23.85965,-2.805085 38.09869,-11.018156 4.07651,-2.351334 8.13826,-4.275153 9.0261,-4.275153 0.88783,0 6.56363,-3.296003 12.61288,-7.324452 6.12375,-4.078067 12.76792,-7.731107 14.99048,-8.241942 2.19552,-0.504619 4.85585,-1.314451 5.91185,-1.799626 2.96571,-1.362586 13.80203,-2.575611 17.05867,-1.909558 3.66355,0.749277 5.43052,3.242543 3.96557,5.595579 -0.57526,0.923999 -2.94905,3.133007 -5.27509,4.908905 -2.32603,1.775899 -4.60619,4.367898 -5.06701,5.76 -0.46082,1.392102 -2.16557,3.935094 -3.78832,5.651094 -2.72228,2.878705 -2.79408,3.12 -0.92834,3.12 1.11217,0 4.7333,-1.282182 8.04695,-2.849294 6.6449,-3.14254 8.57923,-2.740808 8.50733,1.766841 -0.0614,3.847438 -2.83632,8.174516 -7.92936,12.364547 -2.53527,2.085768 -5.29134,4.765634 -6.12458,5.955259 -0.83325,1.189624 -3.51093,3.468783 -5.95041,5.064797 -2.43948,1.596014 -3.57141,2.593858 -2.51541,2.21743 9.80822,-3.496297 17.05696,-2.871287 17.56995,1.514938 0.50949,4.356313 -16.83524,18.125481 -22.83229,18.125481 -1.08836,0 -3.59138,1.067134 -5.56227,2.371409 -3.81519,2.524775 -18.09842,6.559217 -19.8248,5.599714 -0.56682,-0.315037 -0.49625,0.0033 0.15684,0.707476 0.86291,0.930367 5.30061,1.376183 16.23722,1.631203 8.27738,0.19301 15.86925,0.78949 16.87082,1.32552 3.15499,1.68849 1.65795,4.87634 -4.0837,8.69599 -6.24827,4.15669 -17.60021,7.58068 -27.81177,8.38862 l -7.2,0.56967 6.24,0.7838 c 6.82493,0.85726 13.16906,3.26497 15.25249,5.78859 1.152,1.3954 1.08698,1.8896 -0.48,3.64851 -2.58569,2.90239 -6.85208,4.47304 -14.19324,5.22516 -6.10715,0.6257 -6.32146,0.73282 -4.80919,2.40385 4.05992,4.48617 -2.94811,8.00822 -14.43666,7.25548 -9.7216,-0.63696 -17.90077,-2.02042 -20.65289,-3.49331 -1.16872,-0.62548 -2.32929,-0.93291 -2.57903,-0.68317 -0.24974,0.24974 2.10893,2.01102 5.2415,3.91395 7.78767,4.73077 8.49834,5.70576 6.4441,8.84094 -1.54429,2.35688 -1.98837,2.47478 -7.6064,2.01942 -8.55189,-0.69317 -13.46169,-2.41486 -18.09981,-6.34696 -3.66627,-3.10818 -3.85371,-3.17447 -1.91273,-0.6764 2.76966,3.56458 2.74835,5.99269 -0.0588,6.69723 -3.57909,0.89829 -7.51505,-0.21118 -13.29405,-3.74733 -2.98358,-1.82565 -6.00758,-3.32098 -6.72,-3.32295 -0.71241,-0.002 -2.67357,-0.84398 -4.35812,-1.87112 l -3.06282,-1.86753 -0.29718,3.06326 c -0.44466,4.58343 -2.7556,4.30139 -9.84656,-1.20174 l -6.29062,-4.882 v 4.37149 c 0,2.87578 -0.46305,4.54917 -1.35335,4.89082 -1.93708,0.74332 -6.98608,-2.10841 -8.8973,-5.02531 -1.59855,-2.43969 -1.64263,-2.44822 -2.37811,-0.46002 -1.22318,3.30657 -4.91362,2.55063 -8.85703,-1.81426 -1.90807,-2.112 -3.65629,-3.84 -3.88494,-3.84 -0.22865,0 -0.55378,0.96758 -0.7225,2.15019 -0.48036,3.36693 -3.3643,3.14428 -7.0531,-0.54452 -2.19977,-2.19977 -3.95948,-3.18227 -5.14458,-2.87236 -1.58775,0.41521 -5.86838,-2.81878 -5.86944,-4.43433 -2e-4,-0.29644 -2.12988,-0.62874 -4.73263,-0.73845 -4.49977,-0.18967 -4.76219,-0.0632 -5.34135,2.57367 -0.7169,3.26402 -2.78774,5.25299 -4.70372,4.51776 -0.89497,-0.34343 -1.74998,0.5256 -2.49173,2.5326 -2.56961,6.95274 -6.54622,14.19396 -9.55161,17.39305 -2.3194,2.46889 -2.4473,4.16199 -0.50808,6.72587 0.77521,1.02492 1.40947,2.83542 1.40947,4.02334 0,1.18793 0.432,2.42685 0.96,2.75318 1.57857,0.97561 1.09044,3.90437 -0.96,5.76 -1.056,0.95566 -1.92,2.08192 -1.92,2.50279 0,0.42087 1.89011,3.48592 4.20024,6.81121 5.91141,8.50913 8.29855,13.60084 8.94823,19.08638 0.65569,5.53627 -1.23865,8.55446 -5.37726,8.56741 -2.36171,0.007 -2.49925,0.28384 -2.64585,5.31823 -0.16639,5.71385 -2.00055,9.5222 -5.05258,10.49088 -2.79506,0.88711 -9.1636,-1.11242 -12.50913,-3.92749 l -2.92365,-2.46009 -0.0542,3.68534 c -0.1737,11.81417 -7.12532,15.92842 -16.67764,9.87052 -4.59549,-2.91437 -4.64195,-2.9219 -6.66795,-1.07997 -4.75267,4.32085 -8.93362,5.04642 -13.33977,2.31503 z"
       id="path1" />
    <path
       id="path2"
       style="fill:#aa4400"
       d="M 25.20061 24.014928 C 21.016094 23.995898 21.270345 25.138735 26.159594 28.31571 C 31.267051 31.634473 36.150078 36.74922 34.679125 37.239538 C 31.369564 38.342726 42.607119 47.680111 52.179125 51.780553 C 55.432912 53.174406 56.676314 54.198135 56.302172 55.173131 C 55.911829 56.190351 57.193661 57.018812 61.022875 58.225866 C 66.315661 59.894269 67.405268 61.655798 63.499438 62.229772 C 61.609119 62.507561 53.208351 58.918163 40.0385 52.204381 C 37.507645 50.914191 35.059506 50.092424 34.597094 50.378209 C 34.134681 50.663996 31.669305 49.633324 29.118578 48.089147 C 24.028963 45.00796 20.157911 43.593673 20.1635 44.815709 C 20.1735 46.996333 24.464028 52.122475 29.220141 55.636022 C 32.156621 57.805326 34.559985 60.109577 34.559985 60.757116 C 34.559985 62.655412 49.317681 71.999303 52.315844 71.999303 C 52.508749 71.999303 52.805324 71.027146 52.974047 69.839147 C 53.242077 67.951915 54.056317 67.583607 59.433031 66.921178 C 63.27328 66.448047 65.945592 66.521629 66.540453 67.116491 C 67.11956 67.695597 68.119912 67.734893 69.089281 67.2161 C 70.027121 66.714184 72.242209 66.728385 74.462328 67.249303 C 76.539841 67.73676 80.677556 67.874665 83.655688 67.555944 C 89.802899 66.898068 98.318776 69.150331 99.29436 71.692663 C 99.778892 72.955333 99.353954 73.097124 96.737719 72.542272 C 88.335501 70.760324 87.360766 70.740521 87.360766 72.354772 C 87.360766 74.278576 86.742516 74.295191 81.6635 72.503209 C 77.785314 71.134906 77.666169 71.150162 78.247485 72.981725 C 78.960012 75.226698 77.90536 75.367249 73.649828 73.5911 C 71.950789 72.881965 67.649788 71.723141 64.093188 71.016881 C 51.892592 68.594123 54.980369 72.550318 69.759203 78.276647 C 74.896872 80.267331 80.63581 82.010615 82.511156 82.149694 C 84.386502 82.288773 87.092177 82.852642 88.524828 83.4036 C 92.011939 84.74465 104.07634 84.902128 109.44084 83.677038 C 114.54057 82.512414 136.31975 82.54576 136.31975 83.718053 C 136.31975 85.434304 130.99314 86.402581 121.13811 86.477819 C 111.72547 86.549679 111.11985 86.661617 113.80022 87.839147 C 118.44826 89.88111 135.12114 92.401142 143.75725 92.366491 C 148.11177 92.349021 151.90471 92.705982 152.18498 93.159459 C 153.0466 94.553588 149.15385 95.999303 144.54241 95.999303 C 142.1317 95.999303 140.15959 96.432241 140.15959 96.960241 C 140.15959 97.48824 139.31128 97.919225 138.27483 97.919225 C 136.63822 97.919225 132.0181 99.459993 125.28069 102.25126 C 121.98226 103.61778 133.99732 104.59365 143.05608 103.69462 C 151.00092 102.90613 153.62202 102.18698 160.04241 99.036413 C 164.09499 97.047754 165.33584 98.444409 162.0385 101.28251 C 159.00002 103.89779 150.54429 106.56354 143.04045 107.27079 C 140.13646 107.5445 136.68076 108.4918 135.36077 109.37626 C 132.47337 111.31094 126.28005 113.88587 122.61663 114.67508 C 121.15177 114.99066 118.34353 116.78368 116.37639 118.65946 C 114.40925 120.53524 111.61159 122.69576 110.15959 123.46024 C 108.7076 124.22473 107.52092 125.11264 107.52092 125.43485 C 107.52092 126.64281 115.96396 124.80218 120.88811 122.52079 C 123.69965 121.21818 126.53946 120.35962 127.19866 120.61258 C 128.52932 121.1232 139.55309 115.77306 142.55998 113.15751 C 143.61598 112.23894 145.6829 111.03118 147.15373 110.47391 C 149.30958 109.65711 149.93712 109.74396 150.38811 110.91923 C 150.72925 111.80819 151.62249 112.16217 152.67717 111.82743 C 153.62847 111.5255 155.34934 111.09813 156.50139 110.87626 C 157.65344 110.6544 159.09253 110.07637 159.69866 109.59305 C 160.30479 109.10973 161.88061 108.39429 163.20061 108.00321 C 164.52061 107.61214 166.35931 106.62612 167.28655 105.8118 C 169.33286 104.01472 170.72864 105.05784 169.31194 107.32548 C 167.9547 109.49793 159.10234 113.90832 153.12053 115.39188 C 147.59696 116.76179 141.34399 120.87249 143.11663 121.96805 C 143.87803 122.43862 143.33867 123.25596 141.48577 124.44266 C 137.84554 126.77407 136.49379 128.61451 136.99944 130.54813 C 137.25214 131.51443 136.54658 132.5433 135.18498 133.19852 C 133.96074 133.78765 133.40611 134.29951 133.95061 134.33524 C 135.24258 134.42004 153.98155 123.75705 154.40764 122.69462 C 154.58734 122.24653 155.91884 121.26751 157.36663 120.51883 C 158.81441 119.77016 161.83862 117.61796 164.08928 115.73758 C 168.21266 112.29261 170.99241 111.91943 168.72991 115.11454 C 168.06425 116.05459 164.83139 119.05633 161.54631 121.78446 C 156.06767 126.33424 152.88779 130.16695 153.8178 131.09696 C 154.3509 131.63007 162.95549 126.97024 167.74944 123.55204 C 170.78541 121.3873 171.56354 120.34359 170.81584 119.44266 C 170.05392 118.52461 171.22009 117.60391 175.67913 115.60282 C 178.90475 114.15524 182.33844 111.96099 183.30998 110.72587 C 184.28154 109.49073 185.5541 108.47977 186.13811 108.47977 C 188.30424 108.47977 187.0943 111.25488 183.77288 113.90555 C 181.88828 115.40955 177.69395 119.11106 174.45256 122.13212 C 164.3589 131.53967 151.25014 137.11447 150.04631 132.51102 C 149.49673 130.40941 148.31627 129.97474 147.36077 131.52079 C 147.03444 132.04879 147.25937 132.47977 147.86272 132.47977 C 148.85063 132.47977 136.52675 144.69714 130.55998 149.63212 C 127.45092 152.20354 129.6312 152.27637 135.11663 149.78641 C 137.35874 148.76866 141.10601 146.62011 143.44475 145.01102 C 145.78349 143.40192 148.26906 142.30172 148.96819 142.56571 C 149.66732 142.8297 153.26438 140.40235 156.96038 137.17118 C 163.42553 131.51912 168.67226 128.34872 170.101 129.23173 C 170.47493 129.46282 168.82232 131.45739 166.42913 133.66337 C 162.03058 137.71779 157.73737 144.61904 158.89592 145.77274 C 159.24221 146.11757 160.24394 145.52177 161.12248 144.44852 C 165.16224 139.51352 180.66048 130.42012 182.27678 132.03641 C 182.56562 132.32526 180.87538 134.3 178.52092 136.42508 C 176.16646 138.55017 174.78084 140.01948 175.44084 139.68876 C 177.94519 138.43386 178.57824 140.31624 176.59123 143.10673 C 172.73281 148.5254 176.23548 145.80595 184.6967 136.8118 C 192.29993 128.72968 194.8803 126.89819 194.8803 129.58329 C 194.8803 130.03969 193.44308 132.29433 191.68694 134.59501 C 187.82382 139.65596 186.48719 143.48874 189.06584 142.10868 C 189.98807 141.61512 191.95574 139.571 193.43889 137.56571 C 200.94081 127.42279 205.77326 124.50565 202.52678 132.07938 C 201.48954 134.49915 200.64006 137.18648 200.64006 138.05204 C 200.64006 140.39479 204.15427 136.61841 207.26311 130.93485 C 210.01468 125.90444 212.96185 123.8395 211.74748 127.79227 C 211.36079 129.05096 210.81914 131.15977 210.54241 132.47977 C 210.05663 134.7969 210.08704 134.81394 211.44084 132.96024 C 212.21207 131.90424 213.58887 128.7713 214.49944 125.9993 C 216.47084 119.99786 217.91936 119.49011 217.91936 124.80008 C 217.91936 128.5358 219.03172 129.76419 220.40373 127.54423 C 220.77622 126.94152 221.24433 124.49888 221.4428 122.11649 C 221.64126 119.73409 222.73975 116.11955 223.8842 114.08329 C 225.24459 111.66279 225.6386 110.0545 225.02288 109.43876 C 224.06935 108.48523 218.1724 107.01171 210.18303 105.73173 C 207.77559 105.34603 204.53637 104.13656 202.98381 103.04227 C 201.43124 101.94798 199.14558 100.73619 197.90569 100.35087 C 196.66581 99.965551 193.34447 97.6408 190.52483 95.18485 C 181.92607 87.695195 176.48451 83.705094 170.58342 80.55985 C 166.8484 78.5691 165.2644 77.230431 165.89592 76.598913 C 168.18515 74.309689 173.79168 77.220996 187.21038 87.665319 C 190.47817 90.208783 193.38136 92.058783 193.6635 91.776647 C 193.94563 91.494512 196.15513 93.003008 198.5717 95.130163 C 201.1653 97.413135 203.63042 98.824271 204.58928 98.573522 C 205.4827 98.339887 209.11465 99.60869 212.66155 101.39383 C 216.20844 103.17897 219.70656 104.63993 220.43498 104.63993 C 222.02207 104.63993 222.14402 101.9292 220.72405 98.221959 C 219.06773 93.897641 218.89249 81.802825 220.42327 77.464147 C 221.16931 75.349643 221.52485 73.363722 221.21233 73.050084 C 220.89981 72.736447 216.25136 72.358155 210.88225 72.210241 C 198.94989 71.881517 196.64287 71.436015 197.00334 69.520788 C 197.18446 68.558416 195.63203 67.352743 192.47991 66.011022 C 189.83991 64.887292 183.83085 61.459635 179.12639 58.393834 C 172.6993 54.205427 170.26258 53.076824 169.32756 53.852819 C 168.64315 54.420827 167.6334 54.606787 167.08342 54.266881 C 165.41967 53.23863 156.25067 52.757719 155.12834 53.639928 C 154.55169 54.093211 151.36518 54.697838 148.04631 54.983678 C 144.72744 55.26952 140.96167 56.19215 139.67913 57.032506 C 136.84208 58.891411 123.18509 59.096422 108.27678 57.505163 C 99.378661 56.555411 97.352082 55.944926 87.839281 51.339147 L 77.280688 46.225866 L 81.360766 49.7786 C 85.966076 53.789374 86.342412 54.720006 83.366625 54.720006 C 82.099801 54.720006 78.979089 52.387412 75.337328 48.720006 C 68.962765 42.300555 66.689765 40.319616 65.698656 40.319616 C 65.356353 40.319616 63.440805 39.024708 61.440844 37.440709 C 59.440883 35.856711 57.496568 34.55985 57.120531 34.55985 C 56.744495 34.55985 54.86287 33.336496 52.938891 31.8411 C 47.339616 27.489113 46.183626 27.282005 50.880297 31.47196 C 55.386122 35.491659 55.589813 37.78369 51.233813 35.452428 C 49.845671 34.709518 46.87161 32.483204 44.624438 30.505163 C 40.438558 26.820605 32.135106 24.046467 25.20061 24.014928 z M 536.74944 24.456335 C 533.39044 24.520613 527.59952 25.63193 523.67913 27.130163 C 522.09513 27.735506 518.2933 30.302471 515.22991 32.835241 C 512.1665 35.368008 509.25003 37.44071 508.74944 37.440709 C 506.70433 37.440709 508.06157 34.512176 511.44084 31.630163 C 515.63314 28.05477 514.14137 28.737909 507.36077 33.499303 C 504.72077 35.353126 500.583 38.185378 498.16741 39.794225 C 492.20152 43.767644 488.4642 47.047595 486.59905 49.944616 C 484.83348 52.686961 478.52029 56.440082 477.45842 55.378209 C 477.07451 54.994298 478.6759 52.675055 481.01897 50.225866 C 484.60836 46.473908 484.80039 46.102476 482.23577 47.858678 C 473.95609 53.528402 465.35785 56.55204 453.59905 57.932897 C 440.80568 59.435243 424.88231 59.261725 422.87639 57.596959 C 420.84493 55.911001 405.46132 53.756806 399.02678 54.257116 C 395.83583 54.505225 392.98586 54.33744 392.6928 53.884069 C 392.39974 53.430698 388.70389 55.366096 384.47991 58.18485 C 380.25591 61.003605 374.10259 64.494635 370.80608 65.944616 C 366.87382 67.67423 364.89301 69.079547 365.04631 70.030553 C 365.34345 71.873923 359.82715 72.790981 347.86077 72.887975 L 339.08147 72.960241 L 339.84709 76.350866 C 341.0872 81.849363 339.85158 91.17647 336.8842 98.714147 C 334.37668 105.08431 334.22656 106.09832 335.28069 109.47587 C 336.04152 111.91364 337.08831 113.3002 338.30608 113.48173 C 340.98657 113.88127 341.16445 115.54589 338.64397 116.65165 C 337.1586 117.3033 336.38565 118.57803 336.17913 120.72001 C 336.01367 122.43599 336.30951 123.83915 336.83538 123.83915 C 337.36124 123.83915 338.06613 124.71102 338.40373 125.77469 C 338.74132 126.83835 339.37006 127.48976 339.80022 127.22391 C 340.23038 126.95805 341.17219 127.45593 341.89202 128.32938 C 343.0543 129.73975 343.25285 129.50504 343.67913 126.23368 C 344.39549 120.73605 346.17673 121.06863 347.90764 127.02274 C 348.74013 129.8864 350.15403 132.82491 351.05022 133.55399 C 352.48904 134.72451 352.60124 134.67286 352.01506 133.11063 C 348.92078 124.86407 350.8963 124.7901 356.01897 132.96024 C 358.17082 136.39224 360.33769 139.20048 360.83538 139.20048 C 361.98244 139.20048 361.24427 135.78617 359.23577 131.79813 C 358.38203 130.10297 358.02325 128.37784 358.43694 127.96415 C 359.1473 127.25378 361.16737 129.234 369.96819 139.26883 C 375.1526 145.1802 375.6228 142.46627 370.64397 135.36844 C 367.90945 131.47013 367.03803 129.51564 367.81975 129.03251 C 368.52094 128.59916 372.11534 131.67392 377.28655 137.12821 C 385.53589 145.82913 388.58967 148.19187 385.51116 143.49344 C 383.85175 140.96087 384.27002 138.75847 386.226 139.73368 C 386.84952 140.04456 385.73922 138.86294 383.7592 137.10868 C 381.77919 135.35442 380.15956 133.59646 380.15959 133.20048 C 380.15976 130.30424 390.50829 135.6468 398.07561 142.45048 C 400.78517 144.88659 403.26768 146.88016 403.59319 146.88016 C 405.43252 146.88016 400.55743 139.01286 396.31194 135.13016 C 393.57607 132.62812 391.59927 130.32135 391.91741 130.00321 C 393.11076 128.80986 396.87574 130.92876 404.30022 136.97196 C 408.55427 140.43459 412.53937 142.97609 413.27288 142.69462 C 413.99869 142.41609 416.24235 143.51696 418.25725 145.13993 C 420.27215 146.7629 423.64722 148.88906 425.7592 149.86454 C 429.68632 151.67837 434.09876 152.34767 432.43108 150.87626 C 423.59753 143.08219 414.23893 133.67747 414.23577 132.59305 C 414.23377 131.82526 413.73761 131.03247 413.1342 130.83133 C 412.53079 130.6302 412.10149 131.24278 412.17913 132.19266 C 412.40917 135.00672 407.01875 134.90167 400.8217 131.97001 C 397.86447 130.57101 392.24767 126.5485 388.33928 123.03251 C 384.43092 119.51651 379.91152 115.63567 378.29631 114.40751 C 376.6811 113.17935 375.36077 111.31415 375.36077 110.26298 C 375.36077 108.59557 375.91102 108.8035 379.67522 111.88798 C 382.04831 113.83253 385.61223 115.98222 387.59514 116.66532 C 389.86146 117.44605 391.20276 118.5153 391.20647 119.54423 C 391.21347 121.56365 395.7384 125.42447 402.16936 128.89774 C 407.89224 131.9886 409.41463 132.22872 408.11272 129.83915 C 406.88308 127.58221 404.3202 125.07635 398.54436 120.47977 C 393.8758 116.76442 392.08383 114.47546 393.06975 113.48954 C 393.33087 113.22842 397.12033 115.59369 401.49163 118.74344 C 414.33589 127.99845 418.20239 130.47429 423.02678 132.54227 C 427.29172 134.37043 427.48133 134.38246 425.96623 132.70829 C 424.91506 131.54674 424.6736 130.58879 425.28069 129.98173 C 425.88777 129.37465 425.5055 128.55485 424.18889 127.64383 C 419.19062 124.18529 418.06469 122.92902 419.2553 122.13798 C 420.80849 121.10601 413.26988 116.15946 410.14397 116.15946 C 407.24803 116.15946 394.50619 110.28845 392.74358 108.14188 C 390.40503 105.2939 392.40657 105.26171 398.12834 108.05594 C 405.80636 111.80554 411.83928 113.40468 411.83928 111.69071 C 411.83928 109.54647 414.06229 110.20557 420.54631 114.27079 C 427.92115 118.89449 432.58195 121.08599 435.83733 121.46024 C 437.15878 121.61215 441.23213 122.87762 444.88811 124.27274 C 448.54409 125.66785 452.40542 126.68136 453.47014 126.52469 C 455.07527 126.2885 454.75008 125.80697 451.56194 123.70438 C 449.44718 122.3097 446.37318 119.82617 444.73186 118.18485 C 443.0171 116.47009 440.74729 115.20048 439.39592 115.20048 C 436.86708 115.20048 429.7814 112.24583 426.82952 109.96024 C 425.83423 109.18961 423.02793 108.31328 420.59123 108.01298 C 408.08772 106.47195 398.39983 102.68165 398.39983 99.329381 C 398.39983 98.122833 399.03391 98.204967 402.21038 99.825475 C 404.30626 100.89472 408.30315 102.34775 411.09123 103.05594 C 417.05784 104.5715 432.52823 105.09329 435.78655 103.88798 C 437.89108 103.10947 437.71223 102.9208 433.351 101.35282 C 430.76039 100.42142 427.23692 99.437473 425.52092 99.165319 C 423.80492 98.893165 422.39983 98.285943 422.39983 97.815709 C 422.39983 97.345478 420.78022 96.954353 418.80022 96.946569 C 414.87091 96.931119 410.53075 95.124824 410.76116 93.600866 C 410.84876 93.021685 413.90059 92.771204 418.45452 92.971959 C 422.60601 93.154976 428.53866 92.818368 431.64006 92.221959 C 443.01544 90.034458 451.20061 88.016911 451.20061 87.401647 C 451.20061 87.054491 446.01072 86.768644 439.66741 86.764928 C 427.98956 86.758128 424.50006 85.836575 426.93498 83.401647 C 427.72868 82.607943 428.82112 82.602919 431.06194 83.384069 C 433.18205 84.123142 435.40761 84.155295 438.37834 83.489538 C 441.32742 82.828635 444.48896 82.865368 448.60295 83.610631 C 458.19587 85.348419 466.72516 85.676505 471.36077 84.483678 C 473.73675 83.872291 477.83991 83.020352 480.47991 82.5911 C 486.95123 81.53889 502.43421 75.231901 504.6303 72.753209 L 506.39983 70.755163 L 500.46819 71.354772 C 497.20539 71.685298 492.27823 72.814154 489.51897 73.862584 C 484.14092 75.906081 482.01869 75.646005 484.03264 73.188756 C 485.12719 71.853289 484.98753 71.750443 482.8803 72.350866 C 477.70356 73.82589 474.23967 74.152196 474.23967 73.165319 C 474.23967 72.612235 474.78084 71.9414 475.44084 71.675084 C 476.10084 71.40877 475.50417 71.158175 474.11663 71.116491 C 472.72911 71.074811 470.01133 71.702227 468.07561 72.511022 C 464.22725 74.118966 461.94413 73.611277 463.66936 71.532506 C 465.63677 69.161928 473.44921 67.288066 477.90569 68.116491 C 480.18593 68.54037 483.74208 68.506456 485.80803 68.042272 C 487.87397 67.578086 490.97675 67.210745 492.70256 67.225866 C 494.42838 67.240986 497.92005 67.263254 500.46233 67.274694 C 506.2041 67.300524 509.7592 68.586968 509.7592 70.639928 C 509.7592 71.868361 510.32757 72.065776 512.38225 71.550084 C 516.00472 70.640904 527.99944 62.535972 527.99944 60.99735 C 527.99944 60.306625 529.15157 58.987259 530.55803 58.065709 C 535.41335 54.884392 541.44084 48.709373 541.44084 46.917272 C 541.44084 44.417023 540.09074 44.649953 533.87639 48.221959 C 530.90812 49.928117 527.93323 51.203127 527.26506 51.055944 C 526.59688 50.90876 524.86904 51.406412 523.42522 52.161413 C 519.62503 54.148594 506.85547 60.093252 503.71428 61.337194 C 502.23743 61.922037 499.99586 62.399694 498.73186 62.399694 C 494.33589 62.399694 495.38278 60.632529 500.87444 58.782506 C 504.44861 57.57844 506.31887 56.440533 506.16936 55.561803 C 506.02661 54.722734 508.41671 53.048646 512.42131 51.182897 C 520.52465 47.407552 528.28793 40.821397 527.51311 38.380163 C 526.8503 36.291858 529.58612 33.232866 536.04436 28.8411 C 539.9647 26.175179 540.46978 25.510168 539.13811 24.764928 C 538.71768 24.529641 537.86911 24.434908 536.74944 24.456335 z M 279.42131 34.788366 C 276.24436 34.765699 273.78119 34.95388 273.29241 35.442663 C 272.72235 36.012719 269.99128 36.479772 267.22405 36.479772 C 264.45681 36.479772 261.95674 36.86319 261.66741 37.331334 C 261.37808 37.799478 259.58027 38.475531 257.67327 38.833288 C 252.83313 39.741302 247.67913 42.347755 247.67913 43.887975 C 247.67913 44.598753 246.94303 45.462296 246.04241 45.807897 C 245.14179 46.153497 243.73865 46.997142 242.92327 47.680944 C 242.10789 48.364746 240.67612 49.471856 239.74163 50.141881 C 238.2915 51.181605 238.71241 51.314746 242.62053 51.052038 C 245.13903 50.882741 249.14492 51.224095 251.52092 51.80985 C 253.89692 52.395606 256.35891 52.987474 256.99358 53.126256 C 257.62825 53.265039 258.92511 54.07923 259.87444 54.93485 C 260.82377 55.790469 262.89591 56.791863 264.47991 57.159459 C 268.18701 58.01976 274.52938 61.63307 276.87053 64.220006 C 277.87572 65.330728 278.89186 66.239538 279.12834 66.239538 C 279.36482 66.239538 281.99628 63.662692 284.97795 60.512975 C 290.23809 54.956395 300.24417 49.067588 302.28264 50.327428 C 302.7596 50.622203 305.168 49.734257 307.63616 48.354772 L 312.12444 45.846959 L 309.18108 44.057897 C 307.56297 43.073866 306.23967 41.899531 306.23967 41.448522 C 306.23967 40.394587 301.88115 38.399694 299.57756 38.399694 C 298.60289 38.399694 297.57943 37.81245 297.30413 37.095006 C 296.85114 35.914539 286.41061 34.838232 279.42131 34.788366 z M 27.181078 71.208288 C 26.339787 71.218627 25.91936 71.414734 25.91936 71.796178 C 25.91936 73.304084 32.408947 78.625442 35.058031 79.290319 C 36.368347 79.619188 37.440844 80.509784 37.440844 81.268834 C 37.440844 82.855078 45.907643 87.057183 50.880297 87.938756 C 52.728295 88.266378 54.744883 89.16818 55.362719 89.944616 C 56.694516 91.618288 63.638068 93.92422 67.618578 94.014928 C 69.168547 94.050248 71.327378 93.278787 72.417406 92.300084 C 74.56278 90.373822 82.991853 87.398439 86.579516 87.300084 L 88.800219 87.237584 L 86.673266 86.382116 C 85.503739 85.91143 81.087179 84.86977 76.858813 84.067663 C 72.448263 83.230995 66.30486 81.167818 62.448656 79.225866 C 57.283337 76.624652 54.551376 75.839147 50.643969 75.839147 C 47.847364 75.839147 42.543382 74.939117 38.858813 73.837194 C 32.921022 72.061414 29.03192 71.185541 27.181078 71.208288 z M 534.89006 71.581334 C 533.44872 71.616369 530.55898 72.271324 526.96233 73.407506 C 522.57033 74.794936 516.08452 76.120914 512.54827 76.354772 C 507.7774 76.670276 504.30334 77.649056 499.08538 80.149694 C 495.21774 82.003211 491.0896 83.520788 489.91155 83.520788 C 488.7335 83.520788 486.77868 83.92484 485.56584 84.419225 C 484.353 84.91361 481.67991 85.591705 479.62639 85.927038 L 475.89202 86.536413 L 478.46623 87.87235 C 479.88205 88.606889 482.6433 89.503159 484.601 89.864538 C 486.5587 90.225917 489.11204 91.538192 490.27483 92.780553 C 492.77676 95.4537 493.41898 95.50287 500.226 93.526647 C 503.09383 92.694055 505.87183 91.46989 506.39983 90.805944 C 506.92783 90.141997 508.65567 89.293797 510.23967 88.921178 C 515.75657 87.623387 525.12053 83.223674 525.12053 81.928991 C 525.12053 81.211926 526.85607 79.930344 528.97795 79.081334 C 533.26002 77.367992 537.20749 73.142911 535.8217 71.757116 C 535.69058 71.625994 535.37051 71.569656 534.89006 71.581334 z M 392.75725 77.946569 C 392.95688 77.949958 393.15045 77.963908 393.33928 77.989538 C 395.93728 78.342155 395.90603 78.396249 391.95061 80.288366 C 387.68369 82.329491 379.90037 88.085106 372.55217 94.634069 C 367.28003 99.332781 355.15934 105.60087 351.34514 105.60087 C 349.83756 105.60087 347.60462 105.96854 346.38225 106.41923 C 342.47341 107.86039 339.18175 108.46285 338.5678 107.84891 C 337.60012 106.88123 338.85321 105.60087 340.76702 105.60087 C 341.74262 105.60087 345.46679 104.28716 349.04241 102.6829 C 352.618 101.07863 356.06362 99.965801 356.70061 100.21024 C 357.97449 100.69907 361.04662 98.869595 364.90178 95.325475 C 366.27729 94.060954 367.78867 93.153625 368.26116 93.307897 C 369.29428 93.645215 372.96832 91.123532 379.09514 85.87235 C 385.52222 80.363822 389.76279 77.895733 392.75725 77.946569 z M 105.48186 87.887975 C 104.85546 87.913492 104.15514 88.226873 103.05608 88.800084 C 101.55074 89.585194 98.28188 90.230425 95.790453 90.233678 C 91.972193 90.238678 91.355002 90.48907 91.868578 91.827428 C 92.405093 93.225563 91.801263 93.357592 86.800219 92.927038 C 83.258425 92.622115 80.035694 92.89918 78.239672 93.665319 L 75.360766 94.893834 L 78.761156 96.337194 C 85.850285 99.3437 111.21896 101.34944 115.39202 99.233678 C 118.68331 97.564973 119.99944 97.570915 119.99944 99.251256 C 119.99944 100.90103 114.33555 103.68094 110.97405 103.68094 C 109.60185 103.68094 108.47991 104.08306 108.47991 104.57548 C 108.47991 105.06789 107.50775 105.77741 106.31975 106.15165 C 105.13175 106.52589 102.658 108.06614 100.8217 109.57548 C 98.985401 111.08481 96.608151 112.35087 95.540453 112.38798 C 93.606879 112.45518 93.608534 112.45856 95.520922 113.3411 C 98.257658 114.60409 108.41444 113.67413 113.3178 111.71219 C 116.07297 110.60979 117.59876 110.39689 117.82756 111.08329 C 118.16853 112.1062 123.8022 110.97654 129.5678 108.72782 C 131.65564 107.91352 131.33415 107.74611 126.85491 107.31571 C 121.5035 106.80151 118.6098 104.95674 119.50334 102.62821 C 119.79733 101.86209 122.20597 100.20616 124.85491 98.948522 C 127.50384 97.690891 129.86641 96.346141 130.10491 95.960241 C 130.34341 95.574339 128.12084 94.956202 125.16741 94.587194 C 117.81737 93.668869 111.14456 91.58103 108.22991 89.288366 C 106.97273 88.299465 106.28723 87.855167 105.48186 87.887975 z M 456.61077 88.626256 C 455.64886 88.613932 454.71669 89.10182 453.13811 90.225866 C 449.91093 92.52382 443.39814 94.442191 434.8803 95.600866 C 431.27923 96.090716 430.21144 96.513802 431.52092 96.930944 C 434.88332 98.002055 442.46104 101.78395 443.00334 102.66141 C 444.73056 105.45612 440.62174 107.86251 434.07756 107.88993 C 431.32067 107.90153 431.09576 108.06765 432.47405 109.07548 C 435.11914 111.00961 443.5211 112.70226 444.68694 111.53641 C 445.39593 110.82743 446.3183 110.93161 447.76897 111.88212 C 450.14135 113.43655 459.38446 115.19947 462.23967 114.64188 C 463.29567 114.43566 465.23999 114.22536 466.55998 114.17508 C 468.75887 114.09128 468.68093 113.96211 465.63616 112.63602 C 463.80837 111.83996 461.07661 110.14717 459.56389 108.8743 C 458.05117 107.60143 456.19819 106.55985 455.4467 106.55985 C 454.69521 106.55985 454.07952 106.18248 454.07952 105.72196 C 454.07952 105.26145 452.37519 104.61197 450.29045 104.2786 C 448.20571 103.94524 445.28923 102.60738 443.80998 101.30594 L 441.12053 98.940709 L 443.5678 98.909459 C 444.9142 98.89277 446.44542 99.308573 446.97014 99.833288 C 448.51821 101.38136 459.23695 102.15137 461.60491 100.88407 C 462.75237 100.26997 466.60438 99.542258 470.16545 99.266881 C 473.72654 98.991506 478.97435 98.082522 481.82756 97.24735 L 487.01506 95.727819 L 484.351 94.333288 C 482.56137 93.395604 480.36195 93.135564 477.64983 93.542272 C 472.93617 94.249128 470.07866 93.42103 470.79436 91.555944 C 471.18388 90.540854 470.1094 90.239538 466.09514 90.239538 C 463.23255 90.239538 459.82398 89.755123 458.52092 89.161413 C 457.77619 88.82209 457.18791 88.633651 456.61077 88.626256 z M 77.759203 99.927038 C 75.369405 99.992158 75.371692 99.995909 78.048266 100.97196 C 84.251447 103.23402 76.820896 105.30368 69.802172 103.26883 C 67.756266 102.6757 67.189496 102.80236 67.401781 103.80594 C 67.591775 104.70414 66.921761 105.01515 65.280688 104.79032 C 63.960689 104.60947 57.289604 104.25061 50.456469 103.99149 C 39.737378 103.58501 38.188848 103.70923 39.175219 104.89774 C 41.568471 107.78143 53.28542 112.2035 61.438891 113.30008 C 65.926012 113.90357 69.776611 114.57726 69.997485 114.79813 C 70.552906 115.35355 71.380244 115.31284 80.460375 114.26883 C 86.769217 113.54347 89.045241 112.8407 91.333422 110.91532 C 92.925193 109.57593 95.043542 108.47977 96.040453 108.47977 C 97.037364 108.47977 98.315144 107.61585 98.880297 106.55985 C 99.445451 105.50385 100.64871 104.59686 101.55413 104.54423 C 104.75804 104.35799 98.431861 102.91212 93.991625 102.81571 C 91.567544 102.76311 87.464398 102.0766 84.872485 101.29032 C 82.280572 100.50403 79.079202 99.891069 77.759203 99.927038 z M 485.70452 100.85673 C 483.63768 100.86066 478.59331 101.39577 474.86858 102.17508 C 471.25455 102.93124 467.76539 103.34472 467.11467 103.09501 C 466.46395 102.84531 464.74596 103.09274 463.29631 103.64383 L 460.65959 104.64579 L 463.37053 106.91141 C 464.86113 108.15756 466.99435 109.46403 468.11272 109.81376 C 469.23108 110.16348 470.91925 111.30249 471.86272 112.34501 C 473.15499 113.77294 474.90232 114.26315 478.94866 114.33524 C 481.90281 114.38784 485.40014 114.77034 486.72014 115.18485 C 489.29835 115.99448 496.49044 115.34532 497.28069 114.23173 C 497.54469 113.85971 500.56744 113.32173 503.99944 113.03641 C 508.19539 112.68757 512.3628 111.51259 516.72014 109.44852 C 525.09906 105.47943 525.25629 103.78125 517.20061 104.2493 C 499.02123 105.30555 495.47727 105.33456 494.5717 104.42899 C 493.9089 103.76619 492.00138 103.83356 488.64006 104.63993 C 484.98489 105.51679 483.40327 105.54766 482.61077 104.75516 C 481.3525 103.49689 482.43658 102.16778 485.28069 101.48368 C 487.11399 101.04271 486.94461 100.85436 485.70452 100.85673 z M 446.8803 116.02469 L 449.35881 118.25126 C 454.21452 122.61497 461.324 127.20858 464.15959 127.81376 C 465.74359 128.15183 469.41575 129.33939 472.31975 130.45243 C 476.56006 132.07765 479.20599 132.41014 485.7592 132.14383 C 490.2472 131.96144 495.86367 131.3036 498.23967 130.68094 C 505.49541 128.77947 505.50494 128.77433 503.84905 127.11844 C 503.02868 126.29807 498.57784 125.09271 493.61467 124.34696 C 487.42576 123.41703 482.91243 122.05855 478.33538 119.74735 C 472.67413 116.88868 471.40831 116.58375 468.47991 117.37821 C 465.35992 118.22464 456.50999 117.84139 449.7592 116.56766 L 446.8803 116.02469 z M 113.04631 116.07157 C 111.79229 116.10885 109.67319 116.38373 107.28069 116.84891 C 101.80401 117.91375 99.250054 117.97226 95.302172 117.11844 C 90.481061 116.07577 90.012176 116.16594 83.302172 119.42313 C 78.551215 121.72935 73.923163 123.12844 68.81975 123.80399 C 61.337684 124.79441 57.599047 126.05913 57.599047 127.60087 C 57.599047 128.36557 68.642533 131.18753 73.91936 131.77079 C 78.759995 132.30583 86.993285 131.2542 91.20061 129.56376 C 93.576607 128.60911 97.140533 127.55844 99.120531 127.22977 C 101.10053 126.90111 102.72014 126.23761 102.72014 125.75321 C 102.72014 125.26881 105.31191 123.11159 108.47991 120.96024 C 111.6479 118.80889 114.23967 116.69962 114.23967 116.27274 C 114.23967 116.11266 113.79873 116.0492 113.04631 116.07157 z M 74.399828 118.07938 C 73.607829 118.07938 72.960375 118.49764 72.960375 119.00907 C 72.960375 119.5205 73.607829 119.69189 74.399828 119.38798 C 75.191828 119.08406 75.839281 118.66384 75.839281 118.45633 C 75.839281 118.24882 75.191828 118.07938 74.399828 118.07938 z M 138.03264 120.17899 L 132.13616 122.96805 C 128.89307 124.5023 125.37575 125.76911 124.31975 125.78251 C 123.26375 125.79591 119.84982 126.66137 116.73186 127.70438 C 113.6139 128.7474 109.07782 129.60436 106.65178 129.61063 C 101.59951 129.62363 95.34762 131.24471 86.399828 134.85868 C 75.194861 139.3843 75.938939 138.83558 79.20061 140.17508 C 81.442469 141.09577 83.887736 141.1132 90.239672 140.25516 C 105.93965 138.13445 108.03546 137.655 112.80022 135.10673 C 119.97039 131.27198 124.80155 129.28187 125.42327 129.9036 C 126.37518 130.85551 112.99826 144.00833 108.96038 146.0911 C 103.94176 148.67973 102.62352 149.78633 103.28264 150.85282 C 103.88669 151.83019 112.86355 150.92414 115.37639 149.63212 C 116.26567 149.17487 117.83885 148.80008 118.87053 148.80008 C 119.90221 148.80008 122.7136 146.8605 125.11858 144.48954 C 127.52357 142.11858 130.05548 140.38253 130.74553 140.63212 C 131.43558 140.88171 133.07983 140.24564 134.39983 139.21805 L 136.80022 137.34891 L 133.10295 137.9368 C 130.59162 138.33535 129.16429 138.12785 128.64788 137.29227 C 127.37784 135.2373 129.37785 130.22912 132.54436 127.53641 C 134.18918 126.13771 136.09771 123.91116 136.78459 122.58719 L 138.03264 120.17899 z M 424.81194 121.08133 C 423.8719 120.98266 427.27065 125.77242 430.40764 128.84696 C 433.39505 131.77489 433.9925 132.97998 433.74358 135.56766 C 433.45209 138.59804 433.29 138.71073 429.59905 138.50126 L 425.7592 138.28446 L 428.101 140.08329 C 429.38844 141.07243 431.01757 141.66028 431.72209 141.38993 C 432.42661 141.11958 435.13424 142.89231 437.73967 145.32938 C 440.49174 147.90362 443.40037 149.76615 444.67913 149.77469 C 445.88974 149.78269 447.52775 150.20818 448.31975 150.72001 C 450.2802 151.98695 460.13491 151.97471 459.351 150.70633 C 459.02001 150.17079 456.94394 148.81334 454.73577 147.69071 C 449.51369 145.03581 434.87757 130.56321 437.40373 130.55204 C 438.39173 130.54804 442.72902 132.32016 447.04241 134.49149 C 452.19341 137.08447 456.49651 138.55454 459.58147 138.77469 C 462.16477 138.95904 465.46764 139.56186 466.92131 140.11454 C 470.09458 141.32102 482.82592 141.42924 484.6635 140.26493 C 485.59058 139.67751 484.62012 138.96496 481.30413 137.80008 C 478.73896 136.89897 474.69575 135.26921 472.31975 134.17899 C 466.82907 131.65962 461.43477 130.45025 456.1967 130.56376 C 452.45376 130.64486 448.27034 129.70314 443.04045 127.60282 C 441.98445 127.17874 439.62521 126.53615 437.79827 126.17508 C 435.11169 125.64412 429.67511 123.5071 425.05803 121.16727 C 424.95544 121.11528 424.87461 121.08791 424.81194 121.08133 z M 283.68108 174.73368 C 281.58938 174.64353 278.99049 176.73652 276.62834 180.53641 C 273.46315 185.62816 271.86076 186.14024 270.25139 182.57743 C 269.1453 180.12878 267.60032 179.8938 265.91936 181.91923 C 265.26206 182.71121 264.12913 183.36063 263.40178 183.36063 C 262.57238 183.36063 262.07952 184.43331 262.07952 186.23954 C 262.07952 190.10585 260.68357 189.869 256.02483 185.21024 L 252.11467 181.30008 L 250.34905 183.53055 C 241.99733 194.08647 234.90339 208.38946 236.63225 211.1868 C 236.96286 211.72174 238.47958 212.15946 240.00334 212.15946 C 242.27784 212.15946 243.48286 211.17165 246.72795 206.63993 C 248.90198 203.60393 251.19273 201.1204 251.81975 201.1204 C 254.39447 201.1204 253.23006 205.2661 249.1303 210.70048 C 244.53641 216.78981 243.87301 219.77664 245.85295 225.45633 C 247.10446 229.04642 249.03286 229.29767 254.3803 226.56962 C 258.1353 224.65396 259.04101 222.78674 262.69084 209.44071 C 262.88334 208.73681 263.57995 208.33949 264.23967 208.5579 C 265.0874 208.83854 265.58013 212.76132 265.91936 221.93485 C 266.47507 236.96205 267.16349 238.59023 272.59514 237.72782 C 274.76041 237.38404 277.01324 236.06256 278.78264 234.09891 L 281.56389 231.01102 L 281.04241 217.02665 C 280.48901 202.17137 280.65412 200.63993 282.80022 200.63993 C 283.91724 200.63993 284.15959 203.40239 284.15959 216.09696 L 284.15959 231.55204 L 287.42327 234.81571 C 289.67365 237.0661 291.57552 238.07938 293.54631 238.07938 C 298.30842 238.07938 298.99277 236.22379 299.52092 221.85673 C 299.89802 211.5988 300.28426 208.80008 301.32952 208.80008 C 302.12935 208.80008 303.1719 210.79352 303.94084 213.79813 C 306.14723 222.41956 307.68824 225.15752 311.30608 226.8743 C 316.86972 229.51443 318.49276 229.04932 319.72795 224.46219 C 321.20589 218.97356 320.42007 216.05035 315.86077 210.06962 C 312.2081 205.27818 311.23912 201.63922 313.44084 200.98563 C 313.96884 200.82889 316.23487 203.22812 318.47795 206.31766 C 322.79561 212.26464 325.2716 213.67699 327.95061 211.71805 C 329.49682 210.58743 329.49504 210.22023 327.90764 205.33915 C 326.13896 199.90056 321.41806 191.58628 317.33538 186.72001 C 314.94398 183.86964 314.91325 183.86154 314.30803 185.9993 C 313.50303 188.84272 312.3532 188.74047 311.60491 185.75907 C 310.82822 182.66446 309.49568 182.76583 304.86858 186.26688 C 299.90118 190.02541 298.55998 189.93201 298.55998 185.82548 C 298.55998 181.56861 295.58094 180.29792 292.46428 183.22587 C 289.80616 185.72302 288.47528 184.87088 287.11272 179.80008 C 286.51572 177.57839 285.58216 175.48569 285.0385 175.14969 C 284.61904 174.89045 284.16378 174.75448 283.68108 174.73368 z M 292.83147 187.73758 C 292.98054 187.72523 293.15914 187.76704 293.37248 187.84891 C 295.56633 188.69078 296.37829 191.17184 295.90959 195.60087 C 295.46208 199.82963 294.28614 200.92781 293.35295 197.98758 C 293.05746 197.05658 292.62555 194.27244 292.39397 191.80204 C 292.11599 188.83655 292.18549 187.79111 292.83147 187.73758 z M 275.19084 188.15946 C 276.3895 188.15946 276.47626 188.44779 275.59709 189.50712 C 274.9824 190.24777 274.84486 191.00345 275.29045 191.1868 C 276.29 191.59808 274.74736 199.68094 273.66936 199.68094 C 273.24195 199.68094 272.65002 197.86842 272.35295 195.6536 C 271.75059 191.16268 272.88717 188.15946 275.19084 188.15946 z M 315.29241 191.54227 C 315.82306 191.5182 316.41779 192.02005 317.16936 193.09305 C 318.88793 195.54665 319.2576 199.67899 317.7592 199.67899 C 317.2312 199.67899 316.80022 198.95788 316.80022 198.07548 C 316.80022 197.19305 316.07596 195.67071 315.19084 194.69266 C 314.05664 193.43937 313.88142 192.61341 314.59905 191.89579 C 314.8233 191.67153 315.0512 191.55322 315.29241 191.54227 z M 250.70842 192.0911 C 250.87694 192.09034 251.03156 192.15056 251.16545 192.28446 C 251.58463 192.70364 251.40313 193.88659 250.76311 194.91141 C 250.1231 195.93623 249.59905 197.42866 249.59905 198.22782 C 249.59905 199.02698 249.16806 199.68094 248.64006 199.68094 C 248.11206 199.68094 247.67913 198.68323 247.67913 197.46415 C 247.67913 195.13429 249.52877 192.09644 250.70842 192.0911 z M 271.84709 203.52079 C 273.18973 203.52079 272.37766 208.58079 270.96038 209.04618 C 270.30038 209.2629 269.7592 208.79212 269.7592 207.9993 C 269.7592 205.79467 270.81999 203.52079 271.84709 203.52079 z M 292.59709 207.77079 C 292.66163 207.77388 292.73021 207.79588 292.80022 207.83915 C 293.32822 208.16547 293.7592 209.48781 293.7592 210.77665 C 293.7592 212.06549 293.32822 213.1204 292.80022 213.1204 C 292.27222 213.1204 291.83928 211.79806 291.83928 210.1829 C 291.83928 208.68375 292.14534 207.74916 292.59709 207.77079 z M 255.05608 210.23954 C 256.05375 210.23954 256.26379 210.85241 255.79631 212.39969 C 254.91373 215.32091 253.74925 216.44597 253.22405 214.88407 C 252.5296 212.81882 253.54673 210.23954 255.05608 210.23954 z M 310.976 212.15946 C 312.28057 212.15946 313.30316 216.04128 312.27092 217.07352 C 311.78727 217.55717 311.09657 217.65698 310.73577 217.29618 C 309.75225 216.31266 309.94665 212.15946 310.976 212.15946 z M 271.61467 223.68094 C 272.91924 223.68094 273.94379 227.56081 272.91155 228.59305 C 272.4279 229.0767 271.73719 229.17651 271.37639 228.81571 C 270.39287 227.83219 270.58532 223.68094 271.61467 223.68094 z M 291.90373 223.68094 C 293.06883 223.68094 293.07215 228.1993 291.90764 228.91923 C 291.41612 229.22298 290.7383 229.02892 290.40373 228.48758 C 289.62361 227.2253 290.72964 223.68094 291.90373 223.68094 z " />
    <path
       id="path3"
       style="display:inline;fill:#ffb380"
       d="M 316.40569 50.905553 C 313.52671 50.78376 307.942 52.088806 305.23186 53.831334 C 301.47595 56.246253 299.37185 56.75242 297.95842 55.579381 C 296.97133 54.760172 296.64006 54.761093 296.64006 55.583288 C 296.64006 56.187257 295.527 57.188425 294.16741 57.807897 C 292.80781 58.427369 291.07008 60.145054 290.30413 61.626256 C 289.51686 63.148668 288.11437 64.319616 287.07952 64.319616 C 286.07266 64.319616 284.99754 65.114708 284.68889 66.087194 C 284.38023 67.05968 283.08387 68.837822 281.80803 70.036413 L 279.48772 72.214147 L 276.96233 69.688756 C 275.57316 68.299587 274.05277 67.399878 273.58538 67.688756 C 273.11796 67.977635 272.2601 67.325112 271.67913 66.239538 C 271.09815 65.153963 270.18656 64.535979 269.65178 64.866491 C 269.117 65.197001 267.95071 64.830141 267.05998 64.050084 C 260.63302 58.421689 244.71289 53.94074 243.39006 57.387975 C 243.03624 58.310002 242.08956 58.57074 240.52092 58.177038 C 238.99059 57.792949 237.91559 58.066064 237.41155 58.9661 C 236.9876 59.723106 234.89755 61.604577 232.76702 63.147741 C 229.88187 65.23747 228.12437 67.691188 225.8842 72.762975 C 224.22997 76.508242 223.30164 79.714622 223.8217 79.887975 C 224.42568 80.089305 224.32694 82.598581 223.54631 86.835241 C 222.59636 91.990777 222.58168 93.554734 223.48186 93.854772 C 224.11875 94.067071 224.64006 95.766539 224.64006 97.632116 C 224.64006 100.58499 224.89599 100.95759 226.61858 100.50712 C 227.93585 100.16265 228.77674 100.52612 229.1342 101.59501 C 229.42952 102.47802 230.52699 105.04528 231.5717 107.30008 C 232.61642 109.5549 233.21975 112.05279 232.9135 112.85087 C 232.54908 113.80052 233.16304 114.60863 234.68889 115.18876 C 235.97119 115.67629 237.74019 117.17331 238.62053 118.51688 C 240.56951 121.4914 241.22474 121.53195 244.79827 118.88993 C 247.10648 117.18338 247.85733 117.03116 249.06389 118.03251 C 250.26749 119.03141 251.15313 118.8798 254.04241 117.17508 C 255.97549 116.03454 258.16597 115.33505 258.90959 115.6204 C 259.73893 115.93865 260.89068 115.01757 261.89006 113.23758 C 262.97753 111.30068 264.07925 110.47502 265.20061 110.75712 C 266.21759 111.01295 266.8803 110.63561 266.8803 109.80008 C 266.8803 109.04096 267.52775 108.17041 268.31975 107.86649 C 270.06263 107.19768 270.1324 105.10001 268.601 99.374303 C 267.34503 94.678351 266.39479 93.950696 265.44084 96.956334 C 263.77403 102.20802 248.76362 106.18486 248.60295 101.41727 C 248.58265 100.81376 247.21543 99.455692 245.56389 98.399694 C 240.92219 95.431761 239.07564 92.230239 238.64397 86.399694 C 238.06944 78.639568 237.55282 77.769115 234.11467 78.755163 C 232.53856 79.207182 230.62641 79.338487 229.86467 79.046178 C 227.77813 78.245502 228.20341 75.839147 230.43108 75.839147 C 231.50365 75.839147 232.62911 75.191692 232.93303 74.399694 C 233.23695 73.607696 234.28995 72.960241 235.27288 72.960241 C 236.40961 72.960241 236.87213 72.470653 236.54436 71.616491 C 235.71841 69.464108 237.53538 69.069411 241.54827 70.526647 C 243.60109 71.272114 247.75882 72.614108 250.7885 73.509069 C 253.81819 74.40403 256.76637 75.699607 257.33928 76.389928 C 257.9122 77.080251 258.96091 77.423501 259.66936 77.151647 C 261.96664 76.270099 268.46777 83.181775 270.1342 88.276647 C 270.98394 90.874578 271.67913 93.676468 271.67913 94.501256 C 271.67913 95.326046 272.00383 95.930268 272.39983 95.845006 C 273.69136 95.566931 278.39983 97.849056 278.39983 98.753209 C 278.39983 99.237787 279.07722 99.895032 279.90373 100.21219 C 281.05735 100.65487 281.26459 100.34356 280.79827 98.874303 C 280.45043 97.778365 280.62951 96.960241 281.21623 96.960241 C 281.77981 96.960241 282.23967 96.325512 282.23967 95.550084 C 282.23967 94.629504 282.79424 94.352942 283.83733 94.753209 C 284.89852 95.160428 285.20648 94.996173 284.75334 94.262975 C 284.09676 93.200622 286.06139 86.184617 288.06194 82.446569 C 288.59342 81.453493 289.63798 80.639928 290.3842 80.639928 C 291.13042 80.639928 292.85626 79.6051 294.22014 78.3411 C 296.56874 76.164495 302.46549 73.00059 310.1967 69.764928 C 315.40599 67.584743 321.30254 68.64103 323.07756 72.073522 C 323.84248 73.552719 325.34491 75.376422 326.41545 76.126256 C 328.17353 77.357661 328.21377 77.612822 326.83733 78.755163 C 325.56492 79.811173 324.8647 79.753585 322.58928 78.409459 C 321.09044 77.524074 319.20288 76.800085 318.39592 76.800084 C 316.5666 76.800084 315.47685 80.020762 316.2553 83.12235 C 317.02524 86.190007 313.44047 94.523167 310.28264 97.007116 C 308.95658 98.050193 306.24006 99.165055 304.24748 99.483678 C 301.69535 99.891784 300.77691 100.4557 301.13616 101.39188 C 301.41664 102.1228 302.41029 102.72001 303.34514 102.72001 C 304.28 102.72001 305.56155 103.34221 306.1928 104.10282 C 306.82406 104.86344 307.95698 105.24934 308.71038 104.96024 C 309.46376 104.67113 310.07952 104.86304 310.07952 105.38602 C 310.07952 107.57528 304.71397 107.37955 299.78264 105.01102 C 294.6048 102.52409 291.87037 99.549041 290.17522 94.55985 L 289.1967 91.680944 L 288.53264 94.55985 C 288.167 96.143848 287.46551 98.432946 286.97405 99.645788 C 285.66369 102.87955 285.88255 105.60087 287.45452 105.60087 C 288.21094 105.60087 289.0708 106.3566 289.36467 107.28251 C 289.65854 108.20842 292.60391 110.25125 295.90959 111.82157 C 302.7483 115.07019 304.58681 115.78376 302.15959 114.24735 C 299.68296 112.67966 300.00856 110.26022 302.64006 110.67508 C 305.89503 111.18823 311.99944 114.02271 311.99944 115.02079 C 311.99944 115.50396 314.03266 116.17831 316.51702 116.51883 C 320.07451 117.00644 321.21247 116.81653 321.87639 115.63016 C 322.34004 114.80167 323.98092 112.68881 325.52092 110.93485 C 327.06092 109.18088 328.31975 106.79203 328.31975 105.6243 C 328.31975 104.34282 329.04648 103.30983 330.15178 103.02079 C 332.08618 102.51493 333.08517 100.08382 333.10686 95.829381 C 333.11386 94.415099 333.8005 92.577148 334.63225 91.745397 C 335.61439 90.763256 336.07617 88.802878 335.94866 86.155553 C 335.84067 83.913597 336.09451 81.260928 336.51311 80.259069 C 336.95658 79.197688 336.76753 77.193747 336.05998 75.458288 C 335.39213 73.820151 334.61477 71.399379 334.33342 70.079381 C 334.05206 68.759385 333.44031 67.193941 332.97405 66.600866 C 332.5078 66.007789 332.36311 64.907816 332.65178 64.155553 C 332.94045 63.403289 332.08304 61.761807 330.74748 60.507116 C 329.41193 59.252423 328.31975 57.66422 328.31975 56.977819 C 328.31975 55.467516 323.42799 52.800084 320.65764 52.800084 C 319.55884 52.800084 318.44302 52.233128 318.17717 51.540319 C 318.02592 51.146158 317.36535 50.946151 316.40569 50.905553 z M 317.36663 102.72001 C 317.74715 102.72001 317.27543 103.58393 316.31975 104.63993 C 314.45818 106.69695 312.96038 107.1405 312.96038 105.63407 C 312.96038 104.72779 315.99631 102.72001 317.36663 102.72001 z M 241.43108 104.05204 C 241.79243 104.05004 242.1462 104.22969 242.34905 104.5579 C 242.65815 105.05803 242.50152 105.71951 242.00139 106.0286 C 241.50126 106.3377 240.83979 106.18303 240.53069 105.6829 C 240.22159 105.18277 240.37821 104.51934 240.87834 104.21024 C 241.05026 104.10399 241.2418 104.05324 241.43108 104.05204 z M 246.53655 104.22977 C 247.17638 104.23477 247.94388 104.27537 248.851 104.34696 C 253.66217 104.72638 255.17785 105.17556 254.31975 105.97001 C 253.56156 106.67196 246.23796 107.41035 245.04045 106.90555 C 244.38045 106.62733 243.83928 105.84854 243.83928 105.17508 C 243.83928 104.51007 244.61704 104.21496 246.53655 104.22977 z M 234.96819 109.49735 C 235.39426 109.48265 236.08638 110.02479 236.67522 110.88212 C 237.39995 111.93727 238.97422 113.77224 240.17522 114.96024 C 241.73897 116.50706 241.95565 117.11101 240.93889 117.08915 C 240.158 117.07235 238.83524 116.53313 237.99748 115.88993 C 235.97326 114.33576 233.92137 110.39768 234.72014 109.59891 C 234.78574 109.53331 234.86986 109.50071 234.96819 109.49735 z M 331.95452 109.60673 C 331.49854 109.55533 330.11952 111.14248 327.38811 114.6829 C 325.16322 117.56675 322.41024 120.20858 321.27092 120.55204 C 320.1316 120.8955 317.38376 123.12485 315.1635 125.50712 C 312.5118 128.3523 310.61398 129.64165 309.63225 129.26493 C 308.00342 128.63989 303.45314 130.34051 301.91936 132.14774 C 301.39136 132.76988 298.25763 133.95437 294.95452 134.78055 C 291.6514 135.60673 287.87766 136.9848 286.5678 137.84305 C 284.86865 138.95638 283.01319 139.24397 280.09319 138.84501 C 277.84217 138.53746 272.97667 138.00514 269.28069 137.66141 C 265.58469 137.31769 262.08567 136.65987 261.5053 136.20048 C 260.92493 135.74106 258.1258 134.92485 255.28459 134.38602 C 251.38082 133.64568 249.17539 132.51175 246.2592 129.74344 C 239.35682 123.19107 227.61589 114.26946 227.06584 115.15946 C 226.77073 115.63696 226.88661 116.24872 227.32366 116.51883 C 227.76071 116.78894 227.70023 119.53056 227.19084 122.61063 C 226.14274 128.94813 227.14794 137.38715 228.52092 133.7786 C 229.41415 131.43082 231.00603 130.171 231.68694 131.27274 C 231.9397 131.68171 232.26291 134.17226 232.40569 136.8079 C 232.73206 142.83261 234.05289 146.88016 235.6928 146.88016 C 236.38878 146.88016 238.33849 148.62208 240.02483 150.75126 C 242.45343 153.81759 243.51851 154.49089 245.14592 153.99149 C 247.96863 153.12528 247.94073 153.24986 246.04827 149.95243 C 243.49877 145.51017 244.97912 145.42623 249.69866 149.74735 C 252.02048 151.87318 254.47571 153.40261 255.15569 153.14383 C 256.6781 152.56449 257.87269 155.30965 256.63616 156.54618 C 256.07909 157.10325 254.50421 156.53288 252.48381 155.04227 C 247.98864 151.72584 247.67744 152.03572 251.52288 156.00321 C 253.60765 158.15417 255.3691 159.18182 256.40569 158.85282 C 257.29727 158.56984 259.57288 159.24973 261.46233 160.36454 C 265.79731 162.92225 267.61786 162.04076 264.96428 158.66727 C 262.27619 155.24995 263.11193 154.97444 267.38225 157.87235 C 269.36583 159.21845 271.44227 160.31962 271.99748 160.31962 C 272.55272 160.31962 272.16888 160.99949 271.14397 161.82938 C 269.37103 163.26494 269.42632 163.31337 272.27873 162.83719 C 274.61566 162.44706 275.76375 162.85579 277.48577 164.68876 C 280.35651 167.74451 281.58683 167.65454 286.05022 164.06766 C 288.5832 162.0321 290.34706 161.28628 291.64592 161.69852 C 292.91819 162.10232 294.52511 161.47204 296.53069 159.78446 C 300.30785 156.60617 300.40937 155.09845 296.70256 157.22587 C 295.15264 158.11538 293.57168 158.5325 293.19084 158.15165 C 292.12903 157.08983 297.4321 152.63661 299.02873 153.2493 C 299.91674 153.59006 300.84558 152.8892 301.54827 151.34696 C 302.16006 150.00423 303.24966 148.68007 303.97014 148.4036 C 305.96033 147.63989 305.61907 152.34619 303.59905 153.52274 C 301.77636 154.58436 301.79639 154.60158 305.15959 154.96805 C 306.69099 155.13492 308.65927 154.05556 311.15959 151.67704 C 315.57643 147.47541 316.2109 144.63111 311.92717 148.23563 C 308.76435 150.89698 307.20061 151.36625 307.20061 149.65751 C 307.20061 148.25891 312.04815 144.4902 313.90569 144.44462 C 314.70652 144.42502 315.87447 144.09184 316.50139 143.70438 C 317.14923 143.30399 318.02532 143.68608 318.53069 144.58915 C 319.24703 145.86918 319.9594 145.04245 322.19084 140.33719 C 324.85587 134.71772 326.74474 133.06737 327.61077 135.60087 C 328.00857 136.76456 330.23967 125.73747 330.23967 122.60868 C 330.23967 121.75417 330.88363 120.69401 331.67131 120.25321 C 332.78291 119.63113 332.90959 118.77061 332.23186 116.40751 C 331.75162 114.73301 331.58838 112.48058 331.87053 111.40165 C 332.16953 110.25828 332.22809 109.63756 331.95452 109.60673 z M 284.58928 112.82352 C 284.26875 112.76002 284.09769 113.39717 283.73381 114.84696 C 282.92956 118.05136 278.50234 125.75907 277.46623 125.75907 C 277.05315 125.75907 275.47515 123.27552 273.95842 120.23954 C 270.49936 113.31557 270.73916 113.64388 269.94866 114.74735 C 268.56055 116.68505 263.04223 119.9993 261.20452 119.9993 C 260.15198 119.9993 258.29821 120.40555 257.08538 120.90165 C 255.87254 121.39775 252.80274 122.07646 250.26311 122.40946 C 245.42182 123.04424 244.73529 124.44597 248.37248 126.27665 C 249.46247 126.82526 251.02973 127.83595 251.85491 128.52079 C 252.6801 129.20564 253.80994 129.48472 254.36467 129.14188 C 254.9194 128.79904 256.75029 129.49835 258.43303 130.69657 C 260.11576 131.89478 262.81156 133.01658 264.42522 133.18876 C 272.57665 134.05856 274.30307 134.33572 276.96038 135.20829 C 281.55525 136.71711 283.12867 136.47747 285.73577 133.8704 C 287.08275 132.5234 288.68341 131.59734 289.29241 131.8118 C 289.90141 132.02626 292.02184 130.75317 294.00334 128.98173 C 295.98486 127.21027 298.19939 125.75907 298.92522 125.75907 C 299.65105 125.75907 300.7879 125.10641 301.45061 124.3079 C 302.32275 123.25703 302.994 123.13712 303.88225 123.8743 C 304.75302 124.59697 305.30452 124.5757 305.78264 123.80204 C 306.15324 123.2024 307.27114 122.92637 308.26702 123.1868 C 309.26289 123.44723 310.33909 123.2374 310.65764 122.72196 C 310.97619 122.20653 312.16429 121.41192 313.29827 120.95438 C 315.28051 120.15459 313.21335 119.95693 298.46038 119.54227 C 296.55783 119.48877 293.87441 118.70552 292.49553 117.80204 C 291.11666 116.89857 289.34844 116.15946 288.5678 116.15946 C 287.78717 116.15946 286.52902 115.27499 285.77092 114.19266 C 285.17843 113.34677 284.83858 112.87287 284.58928 112.82352 z M 242.20452 113.63602 C 242.47134 113.64202 242.99529 113.93511 243.83928 114.46219 C 246.06799 115.85404 246.34674 117.1204 244.42327 117.1204 C 243.68776 117.1204 242.82383 116.43604 242.50334 115.60087 C 241.97675 114.22857 241.81455 113.6267 242.20452 113.63602 z M 256.56194 122.90751 C 256.74509 122.89011 257.09805 123.34755 257.79045 124.26298 C 258.56566 125.28788 259.20061 126.47652 259.20061 126.9036 C 259.20061 127.84286 257.84567 127.92562 256.96038 127.04032 C 256.60838 126.68832 256.33421 125.49969 256.351 124.39969 C 256.366 123.4172 256.3788 122.92487 256.56194 122.90751 z M 261.12053 126.72001 C 261.64853 126.72001 262.07952 127.17844 262.07952 127.73758 C 262.07952 128.29674 262.47879 128.5076 262.96623 128.20633 C 264.02067 127.55467 270.72014 131.32962 270.72014 132.57548 C 270.72014 133.69546 269.70711 133.62958 267.54241 132.3704 C 266.58634 131.81427 265.22148 131.5822 264.51116 131.85477 C 263.11233 132.39155 260.15959 129.67087 260.15959 127.84501 C 260.15959 127.22658 260.59253 126.72001 261.12053 126.72001 z M 298.83342 129.06376 C 298.66085 129.06522 298.42398 129.12099 298.1303 129.23368 C 296.46718 129.87188 296.16151 130.55985 297.54241 130.55985 C 298.03925 130.55985 298.71005 130.13259 299.03264 129.61063 C 299.25335 129.25351 299.16289 129.06095 298.83342 129.06376 z M 272.17522 130.2161 C 272.65204 130.2111 273.46459 130.47386 274.55998 131.04032 C 276.14398 131.85944 277.44084 132.73324 277.44084 132.98368 C 277.44084 133.92319 273.93832 133.39519 272.83147 132.28837 C 271.51769 130.97458 271.38052 130.2244 272.17522 130.2161 z M 333.89202 130.75126 C 333.72434 130.75524 333.44042 131.02579 333.12053 131.52079 C 332.6087 132.31279 332.18889 133.39123 332.18889 133.91923 C 332.18889 134.44722 332.6087 134.23271 333.12053 133.44071 C 333.63236 132.64871 334.05022 131.56832 334.05022 131.04032 C 334.05022 130.84232 333.99262 130.74887 333.89202 130.75126 z M 316.08538 137.35087 C 316.17868 137.35023 316.25869 137.37766 316.31975 137.43876 C 317.12883 138.24784 315.11943 142.07938 313.88616 142.07938 C 313.37673 142.07938 312.96038 141.73108 312.96038 141.30399 C 312.96038 140.03486 315.18363 137.35697 316.08538 137.35087 z M 240.15764 139.25321 C 240.35573 139.22981 240.57009 139.53575 240.90764 140.15946 C 241.33626 140.95146 241.9856 142.57107 242.34905 143.75907 C 243.18833 146.50241 241.40613 146.62653 239.96038 143.92508 C 239.37314 142.82784 239.17099 141.2082 239.51116 140.32548 C 239.77904 139.63031 239.95955 139.27659 240.15764 139.25321 z M 324.22405 145.46805 C 323.92307 145.47441 322.90521 146.4534 321.14397 148.51102 C 319.30922 150.65452 315.63706 153.80258 312.98381 155.50516 C 308.35705 158.47416 306.7304 160.11391 309.4467 159.07157 C 310.15458 158.79993 311.34321 158.96233 312.08733 159.4329 C 314.25663 160.80472 315.10472 160.11379 319.89397 153.06962 C 323.23761 148.15169 324.72568 145.45746 324.22405 145.46805 z M 255.79631 148.80008 C 256.36517 148.80008 261.12053 153.55544 261.12053 154.1243 C 261.12053 155.24568 258.37043 154.37503 256.94866 152.80399 C 255.47465 151.17522 254.79104 148.80008 255.79631 148.80008 z M 240.19475 156.6243 C 239.85751 156.5965 240.20408 157.15042 241.06584 158.49735 C 241.87626 159.76401 242.85429 161.33541 243.23967 161.98954 C 243.77714 162.9018 244.51906 162.79905 246.42522 161.55008 L 248.90959 159.92118 L 246.55998 159.29227 C 245.26682 158.94643 243.16926 158.10836 241.89983 157.42899 C 240.97623 156.93469 240.42549 156.64333 240.19475 156.6243 z M 252.74358 162.62235 C 251.76499 162.58107 250.97759 163.33196 249.101 165.26688 C 246.04814 168.41462 243.88501 173.75907 245.6635 173.75907 C 246.15837 173.75907 247.19398 174.00179 247.96623 174.29813 C 248.91089 174.66063 249.70667 173.87688 250.39592 171.89969 C 250.96215 170.27542 252.10698 168.96024 252.95452 168.96024 C 254.19034 168.96024 254.3628 169.62016 253.84905 172.35868 C 253.49844 174.22757 253.58763 175.67776 254.04631 175.58133 C 255.65939 175.2422 260.97192 177.74888 261.48772 179.09305 C 261.8933 180.14996 262.58352 179.92293 264.58538 178.06766 C 266.00183 176.75493 267.52901 175.68094 267.97991 175.68094 C 268.43081 175.68094 268.80581 175.13977 268.81389 174.47977 C 268.85039 171.50466 270.30345 170.7781 273.19475 172.28641 C 275.61259 173.54772 276.04106 173.5576 276.30022 172.36454 C 277.07679 168.7895 274.80713 167.38485 266.21233 166.12235 C 261.56308 165.43942 256.51198 164.24541 254.98772 163.46805 C 253.98621 162.95729 253.33073 162.64712 252.74358 162.62235 z M 308.64397 162.92118 C 308.2308 162.93112 307.88268 163.03203 307.6303 163.24149 C 307.01004 163.75626 305.36963 163.77631 303.67522 163.29032 C 298.29179 161.74637 286.35635 169.18165 289.22795 172.29032 C 289.87224 172.9878 290.71591 173.36707 291.101 173.13407 C 291.48609 172.90107 292.64621 173.16419 293.68108 173.71805 C 294.93038 174.38665 295.76264 174.40209 296.15764 173.76298 C 297.15608 172.14747 299.65246 172.68745 299.47014 174.47977 C 299.10588 178.06073 299.45041 179.01319 300.67131 177.79227 C 302.21848 176.2451 304.79176 176.33513 306.16155 177.98563 C 307.1188 179.13905 307.68771 179.12896 310.12053 177.91532 C 311.68256 177.13608 312.96038 175.8688 312.96038 175.09891 C 312.96038 173.32793 315.81626 172.16625 316.69084 173.58133 C 317.11711 174.27105 317.75743 173.98356 318.52092 172.76102 C 319.19249 171.68566 319.29252 170.88016 318.75334 170.88016 C 318.23442 170.88016 317.17212 169.64861 316.39397 168.14383 C 315.01627 165.47966 310.87506 162.86748 308.64397 162.92118 z M 285.38616 169.00907 C 284.9273 169.00907 284.14063 169.31174 283.20061 169.91923 C 281.95963 170.7212 281.98521 170.85187 283.3842 170.86454 C 284.27704 170.87254 285.27273 170.44722 285.59905 169.91923 C 285.9745 169.31174 285.84501 169.00907 285.38616 169.00907 z " />
    <path
       style="fill:#ffcc00"
       d="m 280.19374,112.10327 c 0.82336,-2.65128 1.04967,-5.09745 0.57069,-6.16845 -0.63087,-1.41059 -0.90568,-1.00218 -1.3391,1.99014 -0.85151,5.87876 -2.94534,5.56419 -2.94534,-0.44251 0,-4.33342 -0.19136,-4.83873 -1.44,-3.80245 -1.80057,1.49434 -1.79536,2.29488 0.0555,8.52727 1.77874,5.98965 3.21499,5.96036 5.09829,-0.104 z"
       id="path4" />
    <path
       id="path5"
       style="fill:#00ffff"
       d="M 311.79045 79.147741 C 311.3269 79.214384 311.04045 80.591147 311.04045 82.854772 C 311.04045 87.800599 308.81939 91.178381 304.10686 93.399694 C 300.99725 94.86545 296.1462 94.652092 295.12834 93.005163 C 294.84098 92.540208 294.17392 92.15946 293.64592 92.159459 C 292.12779 92.159459 293.748 94.129898 296.01897 95.046178 C 297.15294 95.503709 299.7503 95.905288 301.79241 95.938756 C 304.86662 95.989136 306.14792 95.358641 309.23381 92.272741 C 312.47311 89.033444 312.96038 87.972784 312.96038 84.169225 C 312.96038 81.762271 312.52744 79.526796 311.99944 79.200475 C 311.92635 79.155301 311.85668 79.13822 311.79045 79.147741 z M 242.04827 81.120397 L 241.98381 84.657506 C 241.89181 89.725887 243.23063 92.533229 246.88225 94.936803 C 251.21135 97.78631 259.07591 97.353973 262.5678 94.073522 C 266.10363 90.751773 265.67785 88.505733 262.08538 91.5286 C 258.42328 94.610058 255.97565 95.368772 252.06975 94.636022 C 248.07702 93.886983 245.00481 90.597163 243.35295 85.302038 L 242.04827 81.120397 z " />
    <path
       id="path6"
       style="fill:#ffff00"
       d="M 300.99358 82.009069 C 300.69548 82.00994 300.40164 82.058197 300.12248 82.165319 C 298.28967 82.868636 298.01436 87.004521 299.7592 87.630163 C 301.43399 88.230683 304.31975 86.594714 304.31975 85.044225 C 304.31975 83.432532 302.60329 82.004362 300.99358 82.009069 z M 254.39983 82.55985 C 252.22182 82.55985 251.00504 84.634884 251.86663 86.880163 C 252.57383 88.723102 254.78558 88.728675 256.30998 86.891881 C 257.90511 84.969868 256.84228 82.55985 254.39983 82.55985 z " />
  </g>
</svg>
